<?xml version="1.0" encoding="UTF-8"?>
<svg id="Layer_1" data-name="Layer 1" xmlns="http://www.w3.org/2000/svg" viewBox="0 0 512 512">
  <defs>
    <style>
      .cls-1 {
        fill: #0b0c0e;
      }

      .cls-2 {
        fill: #f4f4f6;
      }
    </style>
  </defs>
  <rect class="cls-1" width="512" height="512"/>
  <g>
    <path class="cls-2" d="M186.59,246.32l67.75,79.28c5.52,6.46,9.04,13.08,10.58,19.86,1.54,6.79,1.16,13.25-1.13,19.39-2.29,6.14-6.22,11.6-11.79,16.35-8.23,7.03-16.91,9.99-26.05,8.85-9.13-1.13-17.56-6.21-25.28-15.25l-69.4-81.22-31.47,26.89,73.54,86.06c9.24,10.82,19.03,18.4,29.38,22.75,10.35,4.35,20.7,5.52,31.06,3.51,10.36-2.01,20.18-6.98,29.46-14.91,10.81-9.24,17.45-19.94,19.91-32.09,2-9.87,1.06-20.7-2.7-32.46l23.47,26.86,29.9-25.55-115.64-135.33-31.59,27Z"/>
    <path class="cls-2" d="M328.71,246.97c4.37,1.85,9.68,3.32,15.92,4.41,6.24,1.09,13.06.75,20.47-1.05,7.4-1.79,14.94-5.96,22.61-12.51,10.73-9.17,17.99-20.08,21.77-32.74,3.78-12.65,3.64-26.25-.41-40.8-4.05-14.55-12.42-29.24-25.11-44.09-12.83-15.01-26.15-25.58-39.97-31.71-13.82-6.13-27.21-8.27-40.15-6.42-12.95,1.85-24.66,7.25-35.15,16.21-7.99,6.83-13.39,13.78-16.2,20.86-2.81,7.09-4.13,13.76-3.94,20.02.19,6.27.85,11.7,2,16.31l-2.06,1.76-20.58-24.09-30.74,26.27,154.11,180.35,31.47-26.89-55.34-64.76,1.33-1.14ZM287.37,202.51c-7.51-8.79-12.82-17.49-15.91-26.09-3.09-8.6-3.81-16.75-2.15-24.45,1.66-7.7,5.95-14.51,12.9-20.44,7.1-6.07,14.63-9.26,22.6-9.58,7.97-.32,15.95,1.8,23.95,6.34,8,4.55,15.59,11.01,22.76,19.4,7.17,8.39,12.39,16.95,15.66,25.68,3.27,8.73,4.16,17.04,2.67,24.94-1.49,7.9-5.74,14.85-12.76,20.85-6.86,5.86-14.26,9.01-22.2,9.44-7.94.43-15.97-1.61-24.08-6.12-8.12-4.51-15.93-11.17-23.45-19.96Z"/>
  </g>
</svg>