<?xml version="1.0" encoding="UTF-8"?>
<svg id="Layer_2" data-name="Layer 2" xmlns="http://www.w3.org/2000/svg" viewBox="0 0 666 194.85">
  <defs>
    <style>
      .cls-1 {
        fill: #f4f4f6;
      }

      .cls-2 {
        fill: #c2c5cd;
      }
    </style>
  </defs>
  <g id="Layer_1-2" data-name="Layer 1">
    <g>
      <g>
        <path class="cls-1" d="M51.03,107.18c3.86-1.2,7.32-2.92,10.37-5.15,3.05-2.23,5.59-4.93,7.64-8.1,2.04-3.17,3.49-6.77,4.36-10.8l-17.5-3.67c-.48,2.16-1.22,4.13-2.23,5.91-1.01,1.78-2.25,3.29-3.71,4.54-1.47,1.25-3.15,2.21-5.04,2.88-1.9.67-4,1.01-6.3,1.01-4.37,0-8-1.16-10.88-3.49-2.88-2.33-5.04-5.49-6.48-9.47-1.44-3.99-2.16-8.45-2.16-13.4s.72-9.54,2.16-13.51c1.44-3.96,3.6-7.11,6.48-9.44,2.88-2.33,6.51-3.49,10.88-3.49,2.26,0,4.32.32,6.19.97s3.53,1.57,4.97,2.77c1.44,1.2,2.65,2.65,3.64,4.36.98,1.71,1.74,3.59,2.27,5.65l17.5-3.67c-.86-3.94-2.32-7.47-4.36-10.59-2.04-3.12-4.57-5.77-7.6-7.96-3.03-2.18-6.46-3.85-10.3-5.01-3.84-1.15-8-1.73-12.46-1.73-7.83,0-14.62,1.73-20.39,5.19-5.76,3.46-10.22,8.32-13.36,14.59-3.15,6.27-4.72,13.58-4.72,21.93s1.57,15.5,4.72,21.72c3.14,6.22,7.6,11.07,13.36,14.55,5.76,3.48,12.56,5.22,20.39,5.22,4.51,0,8.7-.6,12.57-1.8Z"/>
        <path class="cls-1" d="M153.54,39.62c-2.28-4.51-5.5-7.95-9.65-10.3-4.15-2.35-8.99-3.53-14.51-3.53-6.58,0-12.05,1.74-16.42,5.22-3.25,2.59-5.91,6.15-8,10.66V0h-18.44v107.33h18.73v-47.18c0-3.89.74-7.21,2.23-9.98,1.49-2.76,3.53-4.86,6.12-6.3s5.55-2.16,8.86-2.16c4.9,0,8.74,1.54,11.53,4.61,2.78,3.07,4.18,7.3,4.18,12.68v48.33h18.8v-51.22c0-6.48-1.14-11.98-3.42-16.5Z"/>
        <path class="cls-1" d="M225.54,26.8v47.18c0,3.84-.73,7.16-2.2,9.94-1.47,2.79-3.49,4.9-6.09,6.34-2.59,1.44-5.55,2.16-8.86,2.16-4.9,0-8.75-1.54-11.56-4.61-2.81-3.07-4.21-7.3-4.21-12.68V26.8h-18.73v51.22c0,6.44,1.14,11.92,3.42,16.46,2.28,4.54,5.5,7.98,9.65,10.34,4.15,2.35,8.99,3.53,14.51,3.53,6.43,0,11.86-1.73,16.28-5.19,3.59-2.81,6.45-6.81,8.61-11.96l.18,16.14h17.79V26.8h-18.8Z"/>
        <path class="cls-1" d="M282.34,50.89c1.56-2.62,3.72-4.67,6.48-6.16,2.76-1.49,5.87-2.23,9.33-2.23,1.68,0,3.39.1,5.11.29,1.73.19,2.98.41,3.75.65v-17.22c-.91-.14-2.02-.26-3.31-.36-1.3-.1-2.47-.14-3.53-.14-4.61,0-8.72,1.26-12.32,3.78-3.6,2.52-6.12,6.11-7.56,10.77h-.86v-13.47h-18.15v80.53h18.73v-47.4c0-3.41.78-6.42,2.34-9.04Z"/>
        <path class="cls-1" d="M361.15,107.18c3.86-1.2,7.32-2.92,10.37-5.15,3.05-2.23,5.59-4.93,7.64-8.1,2.04-3.17,3.49-6.77,4.36-10.8l-17.5-3.67c-.48,2.16-1.22,4.13-2.23,5.91-1.01,1.78-2.25,3.29-3.71,4.54-1.47,1.25-3.15,2.21-5.04,2.88-1.9.67-4,1.01-6.3,1.01-4.37,0-8-1.16-10.88-3.49-2.88-2.33-5.04-5.49-6.48-9.47-1.44-3.99-2.16-8.45-2.16-13.4s.72-9.54,2.16-13.51c1.44-3.96,3.6-7.11,6.48-9.44,2.88-2.33,6.51-3.49,10.88-3.49,2.26,0,4.32.32,6.19.97s3.53,1.57,4.97,2.77c1.44,1.2,2.65,2.65,3.64,4.36.98,1.71,1.74,3.59,2.27,5.65l17.5-3.67c-.86-3.94-2.32-7.47-4.36-10.59-2.04-3.12-4.57-5.77-7.6-7.96-3.03-2.18-6.46-3.85-10.3-5.01-3.84-1.15-8-1.73-12.46-1.73-7.83,0-14.62,1.73-20.39,5.19s-10.22,8.32-13.36,14.59c-3.15,6.27-4.72,13.58-4.72,21.93s1.57,15.5,4.72,21.72c3.14,6.22,7.6,11.07,13.36,14.55,5.76,3.48,12.56,5.22,20.39,5.22,4.51,0,8.7-.6,12.57-1.8Z"/>
        <path class="cls-1" d="M463.65,39.62c-2.28-4.51-5.5-7.95-9.65-10.3-4.15-2.35-8.99-3.53-14.51-3.53-6.58,0-12.05,1.74-16.42,5.22-3.25,2.59-5.91,6.15-8,10.66V0h-18.44v107.33h18.73v-47.18c0-3.89.74-7.21,2.23-9.98,1.49-2.76,3.53-4.86,6.12-6.3,2.59-1.44,5.55-2.16,8.86-2.16,4.9,0,8.74,1.54,11.53,4.61,2.78,3.07,4.18,7.3,4.18,12.68v48.33h18.8v-51.22c0-6.48-1.14-11.98-3.42-16.5Z"/>
        <path class="cls-1" d="M561.05,26.8v47.18c0,3.84-.73,7.16-2.2,9.94-1.47,2.79-3.49,4.9-6.09,6.34s-5.55,2.16-8.86,2.16c-4.9,0-8.75-1.54-11.56-4.61-2.81-3.07-4.21-7.3-4.21-12.68V26.8h-18.73v51.22c0,6.44,1.14,11.92,3.42,16.46,2.28,4.54,5.5,7.98,9.65,10.34,4.15,2.35,8.99,3.53,14.51,3.53,6.43,0,11.86-1.73,16.28-5.19,3.59-2.81,6.45-6.81,8.61-11.96l.18,16.14h17.79V26.8h-18.8Z"/>
        <path class="cls-1" d="M609.74,68.79c.96,1.92,2.35,3.99,4.18,6.19,1.82,2.21,4.27,4.1,7.35,5.65,3.07,1.56,6.89,2.34,11.45,2.34,6.39,0,12.09-1.62,17.11-4.86,5.02-3.24,8.97-7.96,11.85-14.15,2.88-6.19,4.32-13.71,4.32-22.55s-1.48-16.48-4.43-22.65c-2.95-6.17-6.93-10.84-11.92-14.01-5-3.17-10.61-4.75-16.86-4.75-4.75,0-8.66.8-11.71,2.41-3.05,1.61-5.46,3.52-7.24,5.73-1.78,2.21-3.15,4.28-4.11,6.19h-1.22V0h-18.3v107.33h18.73v-38.54h.79ZM608.59,41.35c0-5.23.73-9.78,2.2-13.65,1.46-3.86,3.61-6.88,6.45-9.04,2.83-2.16,6.31-3.24,10.44-3.24s7.75,1.12,10.59,3.35c2.83,2.23,4.96,5.31,6.37,9.22,1.42,3.91,2.12,8.37,2.12,13.36s-.72,9.47-2.16,13.43c-1.44,3.96-3.58,7.08-6.41,9.36-2.83,2.28-6.34,3.42-10.52,3.42s-7.55-1.09-10.41-3.28c-2.86-2.18-5.02-5.25-6.48-9.18-1.47-3.94-2.2-8.52-2.2-13.76Z"/>
      </g>
      <g>
        <path class="cls-2" d="M10.4,152h10.43v-5.5h4.26v5.5h10.32v3.48H10.4v-3.48ZM22.97,158.05c6.17-.06,10.43,3.2,10.43,8.3s-4.26,8.3-10.43,8.3-10.43-3.25-10.43-8.3,4.26-8.36,10.43-8.3ZM22.97,171.4c3.87,0,6.56-2.02,6.51-5.05.06-3.08-2.64-5.1-6.51-5.16-3.93.06-6.56,2.08-6.62,5.16.06,3.03,2.69,5.05,6.62,5.05ZM35.98,177.8c10.21,0,16.32,3.03,16.27,8.53.06,5.33-6.06,8.36-16.27,8.41-10.32-.06-16.43-3.08-16.38-8.41-.06-5.5,6.06-8.53,16.38-8.53ZM35.98,191.37c7.52,0,12-1.91,12-5.05,0-3.37-4.49-5.22-12-5.16-7.63-.06-12.17,1.79-12.12,5.16-.06,3.14,4.49,5.05,12.12,5.05ZM52.02,177.01h-4.04v-14.02h-6.62v12.23h-3.93v-28.16h3.93v12.34h6.62v-13.24h4.04v30.85Z"/>
        <path class="cls-2" d="M71.76,155.03v-1.79h-10.99v-3.59h26.25v3.59h-10.88v1.79c-.06,6.34,4.82,12.4,12,14.81l-2.24,3.48c-5.5-1.96-9.76-6.06-11.89-11.05-2.13,5.72-6.62,10.21-12.45,12.4l-2.24-3.36c7.29-2.64,12.45-9.25,12.45-16.27ZM83.31,176.68c10.15,0,16.38,3.31,16.38,9.09s-6.23,8.97-16.38,8.97-16.32-3.31-16.27-8.97c-.06-5.78,6.17-9.09,16.27-9.09ZM83.31,191.37c7.46,0,12.12-2.13,12.12-5.61s-4.66-5.72-12.12-5.72-12.06,2.13-12,5.72c-.06,3.48,4.6,5.61,12,5.61ZM99.47,175.11h-4.26v-12.68h-9.87v-3.59h9.87v-12.68h4.26v28.94Z"/>
        <path class="cls-2" d="M151.96,175.33h-44.31v-3.48h44.31v3.48ZM129.75,147.85c10.49-.06,17.22,3.53,17.16,9.65.06,6.06-6.68,9.7-17.16,9.76-10.54-.06-17.22-3.7-17.28-9.76.06-6.11,6.73-9.7,17.28-9.65ZM113.37,179.59h4.26v10.54h29.39v3.59h-33.65v-14.13ZM129.75,163.66c7.85,0,12.84-2.3,12.79-6.17.06-3.81-4.94-6.17-12.79-6.17s-12.79,2.36-12.79,6.17,4.99,6.17,12.79,6.17Z"/>
        <path class="cls-2" d="M190.77,154.91h-18.06v-3.59h22.44c0,13.8-6.45,26.36-22.32,34.22l-2.47-3.37c12.62-6.28,19.52-15.65,20.42-27.26ZM207.82,165.91h7.85v3.7h-7.85v25.13h-4.38v-48.57h4.38v19.74Z"/>
        <path class="cls-2" d="M225.32,156.26h13.57v-7.63h4.26v4.82h11.44v-7.29h4.26v26.59h-4.26v-6.39h-11.44v4.6h-22.21v-22.32h4.37v7.63ZM238.89,167.36v-7.63h-13.57v7.63h13.57ZM227.56,175.11h4.26v5.94h22.77v-5.94h4.26v18.96h-31.3v-18.96ZM254.6,190.59v-6.06h-22.77v6.06h22.77ZM254.6,162.76v-5.72h-11.44v5.72h11.44Z"/>
        <path class="cls-2" d="M283.76,155.92h-14.58v-3.59h18.85c0,4.82-.79,9.48-2.41,13.8h8.69v-18.73h4.15v44.98h-4.15v-22.77h-10.26c-2.97,5.67-7.68,10.66-14.53,14.7l-2.47-3.14c10.6-6.28,15.93-15.03,16.71-25.24ZM308.66,194.85h-4.04v-48.68h4.04v48.68Z"/>
        <path class="cls-2" d="M387.96,180.26l-2.58,3.48c-5.55-2.75-10.38-8.53-12.68-15.54-2.24,7.4-7.07,13.57-12.79,16.43l-2.69-3.59c7.29-3.31,13.29-12.62,13.35-21.87v-8.86h4.26v8.86c-.06,8.92,6,17.84,13.12,21.09ZM393.35,146.16h4.26v48.68h-4.26v-48.68Z"/>
        <path class="cls-2" d="M434.62,171.07l-2.36,3.37c-5.33-2.13-9.59-6.34-11.72-11.67-2.02,5.89-6.45,10.54-12.17,12.79l-2.36-3.48c7.29-2.64,12.34-9.42,12.34-16.94v-6.06h4.26v6.17c0,6.84,4.94,13.24,12,15.82ZM414.88,178.47h4.26v11.67h28.27v3.59h-32.53v-15.26ZM431.15,157.61h10.88v-11.44h4.26v36.46h-4.26v-21.43h-10.88v-3.59Z"/>
        <path class="cls-2" d="M498.79,175.33h-44.31v-3.48h44.31v3.48ZM476.57,147.85c10.49-.06,17.22,3.53,17.16,9.65.06,6.06-6.68,9.7-17.16,9.76-10.54-.06-17.22-3.7-17.28-9.76.06-6.11,6.73-9.7,17.28-9.65ZM460.2,179.59h4.26v10.54h29.39v3.59h-33.65v-14.13ZM476.57,163.66c7.85,0,12.84-2.3,12.79-6.17.06-3.81-4.94-6.17-12.79-6.17s-12.79,2.36-12.79,6.17,4.99,6.17,12.79,6.17Z"/>
        <path class="cls-2" d="M555.65,164.67h-14.47v6.17h20.08v3.48h-44.31v-3.48h19.97v-6.17h-14.25v-16.49h32.98v16.49ZM521.78,179.48h33.99v15.37h-4.26v-11.89h-29.73v-3.48ZM551.39,161.19v-9.54h-24.57v9.54h24.57Z"/>
        <path class="cls-2" d="M579.1,149.08c7.4-.06,12.73,4.66,12.79,11.44-.06,6.73-5.38,11.39-12.79,11.44-7.4-.06-12.84-4.71-12.79-11.44-.06-6.79,5.38-11.5,12.79-11.44ZM579.1,168.37c4.94-.11,8.53-3.25,8.64-7.85-.11-4.6-3.7-7.85-8.64-7.85s-8.64,3.25-8.53,7.85c-.11,4.6,3.53,7.74,8.53,7.85ZM587.85,176.45c9.93.06,16.04,3.42,16.04,9.2s-6.11,9.03-16.04,9.09c-9.98-.06-16.15-3.42-16.15-9.09s6.17-9.14,16.15-9.2ZM587.85,191.26c7.35-.06,11.83-2.07,11.89-5.61-.06-3.53-4.54-5.61-11.89-5.61s-11.89,2.08-11.89,5.61,4.54,5.55,11.89,5.61ZM610.62,157.04h-7.18v6.73h7.18v3.7h-7.18v7.52h-4.26v-28.83h4.26v7.29h7.18v3.59Z"/>
        <path class="cls-2" d="M624.86,150.2c5.89.06,9.93,5.72,10.49,14.92h6.34v-17.95h4.04v45.21h-4.04v-23.67h-6.34c-.45,9.48-4.49,15.37-10.49,15.37-6.34,0-10.43-6.56-10.43-16.94s4.1-16.88,10.43-16.94ZM624.86,179.93c3.98.11,6.51-4.88,6.51-12.79s-2.52-12.9-6.51-12.9-6.45,4.99-6.39,12.9c-.06,7.91,2.47,12.9,6.39,12.79ZM655.6,194.85h-4.15v-48.68h4.15v48.68Z"/>
      </g>
    </g>
  </g>
</svg>